<svg xmlns="http://www.w3.org/2000/svg" viewBox="0 0 420 420"><g fill="none" stroke-width="2"><path stroke="#fef1e4" d="m16.47 250.64.03 152.43a.5.5 0 0 0 .5.5l189.47-.04" vector-effect="non-scaling-stroke"/><path stroke="#fef5eb" d="M206.47 403.53q43.15-.38 86.22-.62 3.93-.02 10.34-.73c7.89-.86 15.15-.49 23-.4a.91.91 0 0 0 .75-1.44l-.75-1.04q-.44-.62.27-.87l11.14-3.94a.57.56 64.7 0 0 .29-.82l-.26-.45q-.26-.43.22-.58c3.41-1.09 7.26-1.94 7.76-5q.02-.07-.05-.09-.14-.03-.27-.05-.32-.06-.21-.36.25-.67.68-1.22.29-.38.35-.85.62-5.77 2.62-10 .39-.84 1.54-.46.6.19.46-.42l-.6-2.65a.85.75-46.1 0 1 .02-.43c1.74-4.86 4.41-10.37 3.23-15.78q-.54-2.46-2.96-6.15-2.9-4.42-5.06-9.29-.21-.47-.66-.73c-3.04-1.75-5.04-4.53-8.33-6.19q-.38-.19-.62-.55l-2.74-4.15q-.2-.3-.29-.65l-.57-2.38q-.14-.56-.72-.61l-1.27-.1a.27.26-31.9 0 0-.12.51q.32.13.26.38a.18.17-57.7 0 1-.3.07l-.99-1.14q-.28-.33-.29-.77-.03-1.7-.33-6.08c-.24-3.37 1.66-6.34 1.4-9.81q-.41-5.43.3-10.83.07-.49-.14-.94c-1.44-3.18-.24-6.78-2.64-9.18q-.32-.32-.18-.75l.56-1.71q.16-.5-.04-1l-1.5-3.77q-.22-.55.2-.97.38-.38.04-.68-.32-.26 0-.54.35-.31.29-.54" vector-effect="non-scaling-stroke"/><path stroke="#fdead8" d="M326.52 276.78q35.31 8.98 69.19 22.58" vector-effect="non-scaling-stroke"/><path stroke="#fdeedf" d="m395.71 299.36 6.32 2.55q1.43.58 1.43-.97l.25-124.44" vector-effect="non-scaling-stroke"/><path stroke="#fef1e4" d="M403.71 176.5c-.24-52.79.52-105.69-.66-158.45a1.17 1.16-.5 0 0-1.17-1.14l-185.89-.19" vector-effect="non-scaling-stroke"/><path stroke="#fdeedf" d="m215.99 16.72-87.02.03" vector-effect="non-scaling-stroke"/><path stroke="#fdead8" d="m128.97 16.75-110.21-.32q-1.94 0-1.94 1.93l-.35 232.28" vector-effect="non-scaling-stroke"/><path stroke="#fce0c4" d="M128.97 16.75q.89.77 2.84.45a.4.4 0 0 1 .34.68q-.5.49-.26 1.08a.72.72 0 0 1-.1.72l-1.97 2.51q-.38.48-.17 1.04l1.55 4.16a1.31 1.27 7.8 0 0 .47.6c2.61 1.88 2.19 4.49 3.39 6.62q1.9 3.39 4.84 5.37" vector-effect="non-scaling-stroke"/><path stroke="#e9ae77" d="M139.9 39.98q.48 18.53.36 35.85c-.03 4.77 7.54 16.12 10.1 20.69q.25.45.76.44l5.24-.01" vector-effect="non-scaling-stroke"/><path stroke="#f3c085" d="M156.36 96.95c3.07.14 6.79-.29 9.56.45q10.22 2.72 10.4 14.55.64 41.67.29 72.57" vector-effect="non-scaling-stroke"/><path stroke="#eab87f" d="m176.61 184.52-.65 41.5" vector-effect="non-scaling-stroke"/><path stroke="#dcab78" d="m175.96 226.02-1.3 25.94" vector-effect="non-scaling-stroke"/><path stroke="#fce3ca" d="M174.66 251.96q-3.43-.88-4.66-.96c-50.99-3.37-102.52-4.32-153.53-.36M173.46 263.22q-4.54-2.11-8.43-5.13c-4.42-3.43-26.15-1.57-35.34-1.19q-20.73.87-53.74-.68c-3.38-.15-5.41.85-4.88 4.59a.91.88-37.1 0 1-.08.52l-1.49 3.09a1.19 1.18 31.4 0 0 .36 1.47q9.85 7.37 21.22 9.56c4.71.9 11.18.5 16.75 1.33 10.88 1.63 20.39 8.48 27.56 16.54a.79.78 39.6 0 1 .09.92q-.87 1.44-2.94 1.46c-6.59.04-15.4-.19-21.66 1.93q-.64.21-.14.67c8.14 7.31 16.65 13.77 25.2 20.64 1.12.9 1.78.71 3.07.39" vector-effect="non-scaling-stroke"/><path stroke="#cfa67e" d="m139.01 319.33.02 1.59q.01.63.65.58l2.55-.21" vector-effect="non-scaling-stroke"/><path stroke="#c7a188" d="M169.96 318.56c12.21-.61 25.17-1.49 36.4-1.61q25.23-.25 50.37 2.02c3.7.33 7.98 1.25 12.03 1.66" vector-effect="non-scaling-stroke"/><path stroke="#f1ba84" d="M244.67 340.67c-8.13-5.27-21.2-3.8-29.75-3.63q-.59.01-.59.59l.04 49.85q0 1.02 1.02 1.03l7.13.08" vector-effect="non-scaling-stroke"/><path stroke="#bc722b" d="M272.66 76.92c-6.54.69-15.99.94-21.41 3.53-8.03 3.84-11.61 14.36-12.36 22.86q-.04.44.4.45h.42" vector-effect="non-scaling-stroke"/><path stroke="#e9ae77" d="m238.43 107.41-.18 40.57" vector-effect="non-scaling-stroke"/><path stroke="#c8742e" d="M238.25 147.98c-1.16 4.72.06 8.84-.97 12.81q-.12.45-.57.61-1.01.35-.69 1.56a1.23 1.2-41.8 0 1-.05.73l-2.79 7.1q-.18.46-.34-.01l-.59-1.81a.78.77 81.5 0 0-.72-.54q-6.82-.17-12.67-3.54-.49-.28-1.05-.33l-7.11-.62q-.47-.04-.78-.4-2.97-3.48-7.01-1.28" vector-effect="non-scaling-stroke"/><path stroke="#eab98a" d="M202.91 162.26 182.4 107.2" vector-effect="non-scaling-stroke"/><path stroke="#e1923e" d="M182.4 107.2c-4.76-13.95-11.24-27.03-27.01-28.85a1.38 1.38 0 0 0-1.52 1.59q.66 4.12.91 8.38c.17 2.91 1.51 5.57 1.58 8.63" vector-effect="non-scaling-stroke"/><path stroke="#ca8739" d="M233.17 250.06q-3.56-1.94-6.18-1.88-.48.01-.9-.22c-2.13-1.15-4.56-2.02-6.55-3.15q-5.96-3.4-16.22-7.14-7.75-2.83-20.49-10.39c-1.77-1.05-3.34-3.09-5.83-3.72q-.44-.11-.45-.55-.01-.28-.09-.56-.11-.34-.14.01l-.36 3.56" vector-effect="non-scaling-stroke"/><path stroke="#f4cb98" d="M182.4 107.2q-.32 1.01.29 2.61 12.66 33.81 32.2 89.46" vector-effect="non-scaling-stroke"/><path stroke="#e19c46" d="M214.89 199.27c-6.27 4.62-11.39-3.49-16.98-5.73q-9.02-3.6-16.5-9.85c-1.19-.99-2.27-.91-3.69-.83q-.45.03-.45.48-.01 1.76-.66 1.18" vector-effect="non-scaling-stroke"/><path stroke="#d38f3f" d="M244.9 274.82c7.63 8.4 18.48 7.86 29.07 7.91" vector-effect="non-scaling-stroke"/><path stroke="#a66a36" d="m272.26 321.09.55-1.17q.22-.46-.21-.73l-4.42-2.72q-.36-.22-.78-.22h-.4a1.94 1.94 0 0 1-.97-.26c-19.07-10.9-43-14.15-64.5-12.01-4.92.48-21.12 1.29-25.35 6.71-2.28 2.92-4.9 4.3-6.22 7.87" vector-effect="non-scaling-stroke"/><path stroke="#ddb284" d="m169.96 318.56-27.73 2.73" vector-effect="non-scaling-stroke"/><path stroke="#ae6f2c" d="M142.23 321.29q.69-.55.79-1.18.07-.47.48-.71 15.83-9.24 33.7-13.15 2.18-.48 1.17-2.47c-2.21-4.36-7.2-5.12-11.02-7.05q-2.44-1.22-5.06-2.12-.44-.15-.63-.58-.62-1.34-2.14-1.81-8.89-2.7-16.52-7.99-.2-.14 0-.38.27-.32-.16-.32l-3.52-.02" vector-effect="non-scaling-stroke"/><path stroke="#dcab78" d="M139.32 283.51q4.08-4.89 7.41-8.53c.63-.69 1.72-1.16 2.54-1.09 5.06.39 19.91-.11 22.89-5.16q1.43-2.43 1.3-5.51" vector-effect="non-scaling-stroke"/><path stroke="#ddb284" d="m173.46 263.22 1.2-11.26" vector-effect="non-scaling-stroke"/><path stroke="#fde6d1" d="m215.99 16.72 7.53.56q.54.04.16.42l-.22.21q-.23.23-.17.56.38 2.17-.94 3.82a2.21 2.2-47.2 0 0 .11 2.88q2.69 2.88 3.73 6.62.13.46.6.46h1.2a.17.17 0 0 1 .09.32l-.38.23q-.45.26-.33.77 1.03 4.14 4.2 7.03.18.16-.07.15h-.33q-.3-.01-.09.21l.61.6a.45.45 0 0 1 0 .63l-.24.23q-.24.25.08.39l2.79 1.22" vector-effect="non-scaling-stroke"/><path stroke="#eab27e" d="M234.32 44.03q-20.9 2.19-38.51 1.13-23.14-1.39-55.91-5.18" vector-effect="non-scaling-stroke"/><path stroke="#dbac88" d="m202.91 162.26 35.32 97.75" vector-effect="non-scaling-stroke"/><path stroke="#fce7d1" d="M238.23 260.01q2.36-.98 3.77-.77 42.71 6.45 84.52 17.54" vector-effect="non-scaling-stroke"/><path stroke="#fdeddd" d="M206.47 403.53q2.06-1.64 5.02-1.54.84.02.17-.47l-.46-.34q-.33-.24-.34-.65c-.08-4.02-.32-7.06 3.8-9.15q.06-.03.01-.08l-.23-.23a.27.27 0 0 1 .22-.46q1.6.15 1.49-1.17a.63.62-3 0 1 .62-.68l5.75-.17" vector-effect="non-scaling-stroke"/><path stroke="#f1be8b" d="M222.52 388.59q.61.02.95-.29.27-.24.27-.84-.01-8.08.02-16.27 0-.57.57-.54c14.28.66 27.91-2.23 25.38-20.41q-.86-6.2-5.04-9.57" vector-effect="non-scaling-stroke"/><path stroke="#fdeddd" d="M244.67 340.67q-.49-1.57-1.18-2.82c-1.78-3.23-11.47-5.62-14.32-6.69-3.51-1.33-7.51-1.05-10.73-2.59-2.42-1.17-2.02-3.36.1-4.66q1.86-1.14 3.82-2.32.44-.27.87.01c4.75 3.05 6.89.23 10.94-.47q3.31-.58 6.63-.19c4.84.55 8.97-.43 13.8.96 2.87.83 5.02.18 7.89.48q.49.05.92-.19 2.48-1.39 5.35-1.56" vector-effect="non-scaling-stroke"/><path stroke="#c7a58f" d="m268.76 320.63 3.5.46" vector-effect="non-scaling-stroke"/><path stroke="#ddb68b" d="m272.26 321.09 2.75.34q.75.09.76-.67l.31-36.45a.8.79-67 0 0-.22-.55q-.88-.91-1.89-1.03" vector-effect="non-scaling-stroke"/><path stroke="#f4cb98" d="M273.97 282.73c-2.06-3.71-6.26-9.16-10.82-9.31-6.2-.2-14.23.92-19.37-3.15a.39.39 0 0 0-.58.51q.92 1.51 2.33 2.97.49.5-.63 1.07" vector-effect="non-scaling-stroke"/><path stroke="#ddb68b" d="M244.9 274.82q-6.94-10.29-8.71-16.01-1.51-4.85-3.02-8.75" vector-effect="non-scaling-stroke"/><path stroke="#ebc392" d="m233.17 250.06-18.28-50.79" vector-effect="non-scaling-stroke"/><path stroke="#cea072" d="m139.32 283.51-.31 35.82" vector-effect="non-scaling-stroke"/><path stroke="#fce0c4" d="M395.71 299.36q2.92.83 5.57.83h.03q.17-.06.14.2a.15.14 10.7 0 1-.18.12q-.28-.07-.52 0a.16.16 0 0 0 .08.31l.86-.17q.54-.1.62-.64 1.01-6.76-.01-13.51-.11-.72-.05-1.37.04-.33-.21-.56-1.22-1.13-1.78.23-.22.51-.48.02c-1-1.91-1.2-6.15-2.25-7.11q-2.8-2.56-5.62-5.2a1.72 1.69 72.2 0 0-.76-.4l-5.19-1.14a.9.89 1.5 0 1-.69-.72q-.69-4.19-4.85-4.76-.54-.08-.91-.47-4.78-5.07-10.4-9.22-.35-.26-.48-.67c-1.25-3.81-2.41-5.66-6.27-7.14q-4.37-1.67-5.5-5.51a2.82 2.8-88.1 0 0-1.7-1.83q-5.51-2.1-9.92-5.98-.37-.33-.52-.79-1.16-3.47-3.96-5.59c-2.42-1.84-3.77-4.05-6.3-5.6q-.41-.26-.61-.7-.35-.79-.83-1.26c-4.02-3.87-6.99-8.97-11.33-12.22-5.97-4.46-10.94-7.57-15.97-14.36-1.67-2.26-3.92-2.42-5.48-3.88q-4-3.74-6.81-4.94-2.38-1-3.49-3.81c-1.46-3.68-3.52-6.23-5.15-9.61-1.42-2.95-3.8-4.94-5.24-8.06-1.26-2.73-4.04-2.53-6.86-3.99q-.44-.23-.94-.2-2.43.14-4.48-1.24a1.51 1.44-84.5 0 1-.56-.71q-.83-2.23.98-3.61a.66.66 0 0 0 .05-1l-3.84-3.68q-.65-.61-.65.28v1.24q0 .58-.58.53-1.77-.15-2.33-2.17-.15-.51-.68-.46l-.32.03q-.46.05-.66-.37c-2.17-4.62-5.96-6.57-8.8-9.86-1.77-2.04-3.49-4.15-5.45-6-1.79-1.69-.99-7.12-2.29-10.1-2.15-4.91-1.78-10-3.71-15.13" vector-effect="non-scaling-stroke"/><path stroke="#eab27e" d="m238.43 107.41 1.28-3.65" vector-effect="non-scaling-stroke"/><path stroke="#cea379" d="M239.71 103.76c4.23-8.28 11.39-7.88 20.41-7.73q.51 0 .78-.42l11.76-18.69" vector-effect="non-scaling-stroke"/><path stroke="#eab27e" d="M272.66 76.92q.27-17.92.09-35.42-.01-1.23-.5-1.67" vector-effect="non-scaling-stroke"/><path stroke="#daa274" d="m238.23 260.01.02-112.03" vector-effect="non-scaling-stroke"/><path stroke="#fde6d1" d="M403.71 176.5q-.11.13-.27.16-.35.07-.24-.27c.92-2.96-.38-3.96-3.14-4.28-9.01-1.05-12.78-6.27-17.53-13.15q-1.45-2.11-2.68-2.84-4.33-2.57-8.28-8.43c-3.87-5.74-11.23-9.25-15.78-15.46-.73-.99-.59-1.54-.53-2.7q.02-.53-.51-.53h-1.31a1.44 1.41 68.9 0 1-1.07-.49q-3.04-3.43-6.29-6.68c-1.13-1.11-1.27-2.46-2.68-3.61q-2.55-2.07-4.32-4.79c-1.92-2.95-2.94-3.76-5.59-5.66q-4.83-3.47-10.16-9.6a1.37 1.34-65.9 0 1-.33-.89v-2.53q0-.54-.38-.92c-2.81-2.8-7.29-6.05-9.26-9.35-1.43-2.42-4.77-4.11-8.36-6.44q-.2-.13-.3.08l-.15.3q-.14.29-.36.05-2.45-2.71-4.09-5.97c-.6-1.2-2.15-1.88-3.05-3.11q-1.98-2.71-4.72-4.7-.26-.19-.58-.19h-.5q-.5 0-.5-.5v-1.02q0-.58-.36-1.02c-3.6-4.39-.97-9.07-7.49-12.03a1.81 1.81 0 0 1-.73-.62q-1.32-1.97-3.48-2.97-.38-.17-.8-.11-1.72.27-2.92-.92-.45-.46-.46.19l-.03 2.44h-.04q-.02 0-.04-.01-.11 0-.13-.18l-.34-2.98a.16.16 0 0 0-.16-.14l-.3-.01q-.23 0-.27-.23-.38-2.39.28-4.64a.39.39 0 0 0-.49-.49q-.41.13-.74.57" vector-effect="non-scaling-stroke"/><path stroke="#eab583" d="m272.25 39.83-37.93 4.2" vector-effect="non-scaling-stroke"/><path stroke="#e9ae77" d="M268.27 43.25c-35.83 22.94-86.97 22.47-123.06.33q-.24-.15-.38-.03-.31.24.02.46c25.11 16.84 58.74 21.07 87.93 15.14 12.56-2.55 23.28-7.24 34.05-14.05q1.13-.72 1.7-1.57.53-.78-.26-.28" vector-effect="non-scaling-stroke"/><path stroke="#f1be8b" d="M347.507 355.184a19.25 19.25 0 0 0-19.384-19.116l-3.48.025a19.25 19.25 0 0 0-19.115 19.384l.105 14.96a19.25 19.25 0 0 0 19.384 19.114l3.48-.024a19.25 19.25 0 0 0 19.115-19.384l-.105-14.96M270.61 368.62l7.23.08q.59.01.86.54 3.16 6.2 6.39 12.36c3.16 6 6.18 9.47 13.22 7.47a.85.83-5.9 0 0 .62-.75l.31-4.63a.87.87 0 0 0-.87-.93c-4.52.03-8.46-10.45-10.65-15.6q-.19-.44.24-.65 8.02-3.87 8.3-13.25c.59-20.04-22.74-16.33-35.27-16.24q-.49 0-.49.49v50.24q0 .75.75.75h7.85q.59 0 .6-.6l.37-18.76q.01-.53.54-.52" vector-effect="non-scaling-stroke"/><path stroke="#f1be8b" d="M337.905 354.14a10.8 10.8 0 0 0-10.781-10.819l-1.38-.002a10.8 10.8 0 0 0-10.819 10.781l-.03 17.26a10.8 10.8 0 0 0 10.781 10.819l1.38.002a10.8 10.8 0 0 0 10.819-10.781l.03-17.26" vector-effect="non-scaling-stroke"/><path stroke="#f1ba84" d="m223.75 345.35.02 16.96a1.17 1.17 0 0 0 1.18 1.17l6.78-.01a9.03 8.12-.1 0 0 9.01-8.13v-3.06a9.03 8.12-.1 0 0-9.05-8.11l-6.78.01a1.17 1.17 0 0 0-1.16 1.17M270.02 345.29l-.06 15.26a1.11 1.11 0 0 0 1.11 1.11l7.68.03a8.19 7.68.2 0 0 8.22-7.65v-2.12a8.19 7.68.2 0 0-8.16-7.71l-7.68-.03a1.11 1.11 0 0 0-1.11 1.11" vector-effect="non-scaling-stroke"/></g><path fill="#fef8f2" d="M0 0h420v420H0V0Zm16.47 250.64.03 152.43a.5.5 0 0 0 .5.5l189.47-.04q43.15-.38 86.22-.62 3.93-.02 10.34-.73c7.89-.86 15.15-.49 23-.4a.91.91 0 0 0 .75-1.44l-.75-1.04q-.44-.62.27-.87l11.14-3.94a.57.56 64.7 0 0 .29-.82l-.26-.45q-.26-.43.22-.58c3.41-1.09 7.26-1.94 7.76-5q.02-.07-.05-.09-.14-.03-.27-.05-.32-.06-.21-.36.25-.67.68-1.22.29-.38.35-.85.62-5.77 2.62-10 .39-.84 1.54-.46.6.19.46-.42l-.6-2.65a.85.75-46.1 0 1 .02-.43c1.74-4.86 4.41-10.37 3.23-15.78q-.54-2.46-2.96-6.15-2.9-4.42-5.06-9.29-.21-.47-.66-.73c-3.04-1.75-5.04-4.53-8.33-6.19q-.38-.19-.62-.55l-2.74-4.15q-.2-.3-.29-.65l-.57-2.38q-.14-.56-.72-.61l-1.27-.1a.27.26-31.9 0 0-.12.51q.32.13.26.38a.18.17-57.7 0 1-.3.07l-.99-1.14q-.28-.33-.29-.77-.03-1.7-.33-6.08c-.24-3.37 1.66-6.34 1.4-9.81q-.41-5.43.3-10.83.07-.49-.14-.94c-1.44-3.18-.24-6.78-2.64-9.18q-.32-.32-.18-.75l.56-1.71q.16-.5-.04-1l-1.5-3.77q-.22-.55.2-.97.38-.38.04-.68-.32-.26 0-.54.35-.31.29-.54 35.31 8.98 69.19 22.58l6.32 2.55q1.43.58 1.43-.97l.25-124.44c-.24-52.79.52-105.69-.66-158.45a1.17 1.16-.5 0 0-1.17-1.14l-185.89-.19-87.02.03-110.21-.32q-1.94 0-1.94 1.93l-.35 232.28Z"/><path fill="#fbdcbd" d="M128.97 16.75q.89.77 2.84.45a.4.4 0 0 1 .34.68q-.5.49-.26 1.08a.72.72 0 0 1-.1.72l-1.97 2.51q-.38.48-.17 1.04l1.55 4.16a1.31 1.27 7.8 0 0 .47.6c2.61 1.88 2.19 4.49 3.39 6.62q1.9 3.39 4.84 5.37.48 18.53.36 35.85c-.03 4.77 7.54 16.12 10.1 20.69q.25.45.76.44l5.24-.01c3.07.14 6.79-.29 9.56.45q10.22 2.72 10.4 14.55.64 41.67.29 72.57l-.65 41.5-1.3 25.94q-3.43-.88-4.66-.96c-50.99-3.37-102.52-4.32-153.53-.36l.35-232.28q0-1.93 1.94-1.93l110.21.32Z"/><path fill="#fce3cb" d="m215.99 16.72 7.53.56q.54.04.16.42l-.22.21q-.23.23-.17.56.38 2.17-.94 3.82a2.21 2.2-47.2 0 0 .11 2.88q2.69 2.88 3.73 6.62.13.46.6.46h1.2a.17.17 0 0 1 .09.32l-.38.23q-.45.26-.33.77 1.03 4.14 4.2 7.03.18.16-.07.15h-.33q-.3-.01-.09.21l.61.6a.45.45 0 0 1 0 .63l-.24.23q-.24.25.08.39l2.79 1.22q-20.9 2.19-38.51 1.13-23.14-1.39-55.91-5.18-2.94-1.98-4.84-5.37c-1.2-2.13-.78-4.74-3.39-6.62a1.31 1.27 7.8 0 1-.47-.6l-1.55-4.16q-.21-.56.17-1.04l1.97-2.51a.72.72 0 0 0 .1-.72q-.24-.59.26-1.08a.4.4 0 0 0-.34-.68q-1.95.32-2.84-.45l87.02-.03Z"/><path fill="#fde9d6" d="m215.99 16.72 185.89.19a1.17 1.16-.5 0 1 1.17 1.14c1.18 52.76.42 105.66.66 158.45q-.11.13-.27.16-.35.07-.24-.27c.92-2.96-.38-3.96-3.14-4.28-9.01-1.05-12.78-6.27-17.53-13.15q-1.45-2.11-2.68-2.84-4.33-2.57-8.28-8.43c-3.87-5.74-11.23-9.25-15.78-15.46-.73-.99-.59-1.54-.53-2.7q.02-.53-.51-.53h-1.31a1.44 1.41 68.9 0 1-1.07-.49q-3.04-3.43-6.29-6.68c-1.13-1.11-1.27-2.46-2.68-3.61q-2.55-2.07-4.32-4.79c-1.92-2.95-2.94-3.76-5.59-5.66q-4.83-3.47-10.16-9.6a1.37 1.34-65.9 0 1-.33-.89v-2.53q0-.54-.38-.92c-2.81-2.8-7.29-6.05-9.26-9.35-1.43-2.42-4.77-4.11-8.36-6.44q-.2-.13-.3.08l-.15.3q-.14.29-.36.05-2.45-2.71-4.09-5.97c-.6-1.2-2.15-1.88-3.05-3.11q-1.98-2.71-4.72-4.7-.26-.19-.58-.19h-.5q-.5 0-.5-.5v-1.02q0-.58-.36-1.02c-3.6-4.39-.97-9.07-7.49-12.03a1.81 1.81 0 0 1-.73-.62q-1.32-1.97-3.48-2.97-.38-.17-.8-.11-1.72.27-2.92-.92-.45-.46-.46.19l-.03 2.44h-.04q-.02 0-.04-.01-.11 0-.13-.18l-.34-2.98a.16.16 0 0 0-.16-.14l-.3-.01q-.23 0-.27-.23-.38-2.39.28-4.64a.39.39 0 0 0-.49-.49q-.41.13-.74.57l-37.93 4.2-2.79-1.22q-.32-.14-.08-.39l.24-.23a.45.45 0 0 0 0-.63l-.61-.6q-.21-.22.09-.21h.33q.25.01.07-.15-3.17-2.89-4.2-7.03-.12-.51.33-.77l.38-.23a.17.17 0 0 0-.09-.32h-1.2q-.47 0-.6-.46-1.04-3.74-3.73-6.62a2.21 2.2-47.2 0 1-.11-2.88q1.32-1.65.94-3.82-.06-.33.17-.56l.22-.21q.38-.38-.16-.42l-7.53-.56Z"/><path fill="#fce3cb" d="m403.71 176.5-.25 124.44q0 1.55-1.43.97l-6.32-2.55q2.92.83 5.57.83h.03q.17-.06.14.2a.15.14 10.7 0 1-.18.12q-.28-.07-.52 0a.16.16 0 0 0 .08.31l.86-.17q.54-.1.62-.64 1.01-6.76-.01-13.51-.11-.72-.05-1.37.04-.33-.21-.56-1.22-1.13-1.78.23-.22.51-.48.02c-1-1.91-1.2-6.15-2.25-7.11q-2.8-2.56-5.62-5.2a1.72 1.69 72.2 0 0-.76-.4l-5.19-1.14a.9.89 1.5 0 1-.69-.72q-.69-4.19-4.85-4.76-.54-.08-.91-.47-4.78-5.07-10.4-9.22-.35-.26-.48-.67c-1.25-3.81-2.41-5.66-6.27-7.14q-4.37-1.67-5.5-5.51a2.82 2.8-88.1 0 0-1.7-1.83q-5.51-2.1-9.92-5.98-.37-.33-.52-.79-1.16-3.47-3.96-5.59c-2.42-1.84-3.77-4.05-6.3-5.6q-.41-.26-.61-.7-.35-.79-.83-1.26c-4.02-3.87-6.99-8.97-11.33-12.22-5.97-4.46-10.94-7.57-15.97-14.36-1.67-2.26-3.92-2.42-5.48-3.88q-4-3.74-6.81-4.94-2.38-1-3.49-3.81c-1.46-3.68-3.52-6.23-5.15-9.61-1.42-2.95-3.8-4.94-5.24-8.06-1.26-2.73-4.04-2.53-6.86-3.99q-.44-.23-.94-.2-2.43.14-4.48-1.24a1.51 1.44-84.5 0 1-.56-.71q-.83-2.23.98-3.61a.66.66 0 0 0 .05-1l-3.84-3.68q-.65-.61-.65.28v1.24q0 .58-.58.53-1.77-.15-2.33-2.17-.15-.51-.68-.46l-.32.03q-.46.05-.66-.37c-2.17-4.62-5.96-6.57-8.8-9.86-1.77-2.04-3.49-4.15-5.45-6-1.79-1.69-.99-7.12-2.29-10.1-2.15-4.91-1.78-10-3.71-15.13l1.28-3.65c4.23-8.28 11.39-7.88 20.41-7.73q.51 0 .78-.42l11.76-18.69q.27-17.92.09-35.42-.01-1.23-.5-1.67.33-.44.74-.57a.39.39 0 0 1 .49.49q-.66 2.25-.28 4.64.04.23.27.23l.3.01a.16.16 0 0 1 .16.14l.34 2.98q.02.18.13.18.02.01.04.01h.04l.03-2.44q.01-.65.46-.19 1.2 1.19 2.92.92.42-.06.8.11 2.16 1 3.48 2.97a1.81 1.81 0 0 0 .73.62c6.52 2.96 3.89 7.64 7.49 12.03q.36.44.36 1.02V64q0 .5.5.5h.5q.32 0 .58.19 2.74 1.99 4.72 4.7c.9 1.23 2.45 1.91 3.05 3.11q1.64 3.26 4.09 5.97.22.24.36-.05l.15-.3q.1-.21.3-.08c3.59 2.33 6.93 4.02 8.36 6.44 1.97 3.3 6.45 6.55 9.26 9.35q.38.38.38.92v2.53a1.37 1.34-65.9 0 0 .33.89q5.33 6.13 10.16 9.6c2.65 1.9 3.67 2.71 5.59 5.66q1.77 2.72 4.32 4.79c1.41 1.15 1.55 2.5 2.68 3.61q3.25 3.25 6.29 6.68a1.44 1.41 68.9 0 0 1.07.49h1.31q.53 0 .51.53c-.06 1.16-.2 1.71.53 2.7 4.55 6.21 11.91 9.72 15.78 15.46q3.95 5.86 8.28 8.43 1.23.73 2.68 2.84c4.75 6.88 8.52 12.1 17.53 13.15 2.76.32 4.06 1.32 3.14 4.28q-.11.34.24.27.16-.03.27-.16Z"/><path fill="#d78030" d="m234.32 44.03 37.93-4.2q.49.44.5 1.67.18 17.5-.09 35.42c-6.54.69-15.99.94-21.41 3.53-8.03 3.84-11.61 14.36-12.36 22.86q-.04.44.4.45h.42l-1.28 3.65-.18 40.57c-1.16 4.72.06 8.84-.97 12.81q-.12.45-.57.61-1.01.35-.69 1.56a1.23 1.2-41.8 0 1-.05.73l-2.79 7.1q-.18.46-.34-.01l-.59-1.81a.78.77 81.5 0 0-.72-.54q-6.82-.17-12.67-3.54-.49-.28-1.05-.33l-7.11-.62q-.47-.04-.78-.4-2.97-3.48-7.01-1.28L182.4 107.2c-4.76-13.95-11.24-27.03-27.01-28.85a1.38 1.38 0 0 0-1.52 1.59q.66 4.12.91 8.38c.17 2.91 1.51 5.57 1.58 8.63l-5.24.01q-.51.01-.76-.44c-2.56-4.57-10.13-15.92-10.1-20.69q.12-17.32-.36-35.85 32.77 3.79 55.91 5.18 17.61 1.06 38.51-1.13Zm33.95-.78c-35.83 22.94-86.97 22.47-123.06.33q-.24-.15-.38-.03-.31.24.02.46c25.11 16.84 58.74 21.07 87.93 15.14 12.56-2.55 23.28-7.24 34.05-14.05q1.13-.72 1.7-1.57.53-.78-.26-.28Z"/><path fill="#fbdcbd" d="M145.21 43.58c36.09 22.14 87.23 22.61 123.06-.33q.79-.5.26.28-.57.85-1.7 1.57c-10.77 6.81-21.49 11.5-34.05 14.05-29.19 5.93-62.82 1.7-87.93-15.14q-.33-.22-.02-.46.14-.12.38.03Z"/><path fill="#a06326" d="M272.66 76.92 260.9 95.61q-.27.42-.78.42c-9.02-.15-16.18-.55-20.41 7.73h-.42q-.44-.01-.4-.45c.75-8.5 4.33-19.02 12.36-22.86 5.42-2.59 14.87-2.84 21.41-3.53Z"/><path fill="#eaa44c" d="M182.4 107.2q-.32 1.01.29 2.61 12.66 33.81 32.2 89.46c-6.27 4.62-11.39-3.49-16.98-5.73q-9.02-3.6-16.5-9.85c-1.19-.99-2.27-.91-3.69-.83q-.45.03-.45.48-.01 1.76-.66 1.18.35-30.9-.29-72.57-.18-11.83-10.4-14.55c-2.77-.74-6.49-.31-9.56-.45-.07-3.06-1.41-5.72-1.58-8.63q-.25-4.26-.91-8.38a1.38 1.38 0 0 1 1.52-1.59c15.77 1.82 22.25 14.9 27.01 28.85Z"/><path fill="#fdf1e4" d="m182.4 107.2 20.51 55.06 35.32 97.75q2.36-.98 3.77-.77 42.71 6.45 84.52 17.54.06.23-.29.54-.32.28 0 .54.34.3-.04.68-.42.42-.2.97l1.5 3.77q.2.5.04 1l-.56 1.71q-.14.43.18.75c2.4 2.4 1.2 6 2.64 9.18q.21.45.14.94-.71 5.4-.3 10.83c.26 3.47-1.64 6.44-1.4 9.81q.3 4.38.33 6.08.01.44.29.77l.99 1.14a.18.17-57.7 0 0 .3-.07q.06-.25-.26-.38a.27.26-31.9 0 1 .12-.51l1.27.1q.58.05.72.61l.57 2.38q.09.35.29.65l2.74 4.15q.24.36.62.55c3.29 1.66 5.29 4.44 8.33 6.19q.45.26.66.73 2.16 4.87 5.06 9.29 2.42 3.69 2.96 6.15c1.18 5.41-1.49 10.92-3.23 15.78a.85.75-46.1 0 0-.02.43l.6 2.65q.14.61-.46.42-1.15-.38-1.54.46-2 4.23-2.62 10-.06.47-.35.85-.43.55-.68 1.22-.11.3.21.36.13.02.27.05.07.02.05.09c-.5 3.06-4.35 3.91-7.76 5q-.48.15-.22.58l.26.45a.57.56 64.7 0 1-.29.82l-11.14 3.94q-.71.25-.27.87l.75 1.04a.91.91 0 0 1-.75 1.44c-7.85-.09-15.11-.46-23 .4q-6.41.71-10.34.73-43.07.24-86.22.62 2.06-1.64 5.02-1.54.84.02.17-.47l-.46-.34q-.33-.24-.34-.65c-.08-4.02-.32-7.06 3.8-9.15q.06-.03.01-.08l-.23-.23a.27.27 0 0 1 .22-.46q1.6.15 1.49-1.17a.63.62-3 0 1 .62-.68l5.75-.17q.61.02.95-.29.27-.24.27-.84-.01-8.08.02-16.27 0-.57.57-.54c14.28.66 27.91-2.23 25.38-20.41q-.86-6.2-5.04-9.57-.49-1.57-1.18-2.82c-1.78-3.23-11.47-5.62-14.32-6.69-3.51-1.33-7.51-1.05-10.73-2.59-2.42-1.17-2.02-3.36.1-4.66q1.86-1.14 3.82-2.32.44-.27.87.01c4.75 3.05 6.89.23 10.94-.47q3.31-.58 6.63-.19c4.84.55 8.97-.43 13.8.96 2.87.83 5.02.18 7.89.48q.49.05.92-.19 2.48-1.39 5.35-1.56l3.5.46 2.75.34q.75.09.76-.67l.31-36.45a.8.79-67 0 0-.22-.55q-.88-.91-1.89-1.03c-2.06-3.71-6.26-9.16-10.82-9.31-6.2-.2-14.23.92-19.37-3.15a.39.39 0 0 0-.58.51q.92 1.51 2.33 2.97.49.5-.63 1.07-6.94-10.29-8.71-16.01-1.51-4.85-3.02-8.75l-18.28-50.79q-19.54-55.65-32.2-89.46-.61-1.6-.29-2.61Zm165.107 247.984a19.25 19.25 0 0 0-19.384-19.116l-3.48.025a19.25 19.25 0 0 0-19.115 19.384l.105 14.96a19.25 19.25 0 0 0 19.384 19.114l3.48-.024a19.25 19.25 0 0 0 19.115-19.384l-.105-14.96ZM270.61 368.62l7.23.08q.59.01.86.54 3.16 6.2 6.39 12.36c3.16 6 6.18 9.47 13.22 7.47a.85.83-5.9 0 0 .62-.75l.31-4.63a.87.87 0 0 0-.87-.93c-4.52.03-8.46-10.45-10.65-15.6q-.19-.44.24-.65 8.02-3.87 8.3-13.25c.59-20.04-22.74-16.33-35.27-16.24q-.49 0-.49.49v50.24q0 .75.75.75h7.85q.59 0 .6-.6l.37-18.76q.01-.53.54-.52Z"/><path fill="#fbdcbd" d="M238.43 107.41c1.93 5.13 1.56 10.22 3.71 15.13 1.3 2.98.5 8.41 2.29 10.1 1.96 1.85 3.68 3.96 5.45 6 2.84 3.29 6.63 5.24 8.8 9.86q.2.42.66.37l.32-.03q.53-.05.68.46.56 2.02 2.33 2.17.58.05.58-.53v-1.24q0-.89.65-.28l3.84 3.68a.66.66 0 0 1-.05 1q-1.81 1.38-.98 3.61a1.51 1.44-84.5 0 0 .56.71q2.05 1.38 4.48 1.24.5-.03.94.2c2.82 1.46 5.6 1.26 6.86 3.99 1.44 3.12 3.82 5.11 5.24 8.06 1.63 3.38 3.69 5.93 5.15 9.61q1.11 2.81 3.49 3.81 2.81 1.2 6.81 4.94c1.56 1.46 3.81 1.62 5.48 3.88 5.03 6.79 10 9.9 15.97 14.36 4.34 3.25 7.31 8.35 11.33 12.22q.48.47.83 1.26.2.44.61.7c2.53 1.55 3.88 3.76 6.3 5.6q2.8 2.12 3.96 5.59.15.46.52.79 4.41 3.88 9.92 5.98a2.82 2.8-88.1 0 1 1.7 1.83q1.13 3.84 5.5 5.51c3.86 1.48 5.02 3.33 6.27 7.14q.13.41.48.67 5.62 4.15 10.4 9.22.37.39.91.47 4.16.57 4.85 4.76a.9.89 1.5 0 0 .69.72l5.19 1.14a1.72 1.69 72.2 0 1 .76.4q2.82 2.64 5.62 5.2c1.05.96 1.25 5.2 2.25 7.11q.26.49.48-.02.56-1.36 1.78-.23.25.23.21.56-.06.65.05 1.37 1.02 6.75.01 13.51-.08.54-.62.64l-.86.17a.16.16 0 0 1-.08-.31q.24-.07.52 0a.15.14 10.7 0 0 .18-.12q.03-.26-.14-.2h-.03q-2.65 0-5.57-.83-33.88-13.6-69.19-22.58-41.81-11.09-84.52-17.54-1.41-.21-3.77.77l.02-112.03.18-40.57Z"/><path fill="#b9672b" d="m238.25 147.98-.02 112.03-35.32-97.75q4.04-2.2 7.01 1.28.31.36.78.4l7.11.62q.56.05 1.05.33 5.85 3.37 12.67 3.54a.78.77 81.5 0 1 .72.54l.59 1.81q.16.47.34.01l2.79-7.1a1.23 1.2-41.8 0 0 .05-.73q-.32-1.21.69-1.56.45-.16.57-.61c1.03-3.97-.19-8.09.97-12.81Z"/><path fill="#d89440" d="m214.89 199.27 18.28 50.79q-3.56-1.94-6.18-1.88-.48.01-.9-.22c-2.13-1.15-4.56-2.02-6.55-3.15q-5.96-3.4-16.22-7.14-7.75-2.83-20.49-10.39c-1.77-1.05-3.34-3.09-5.83-3.72q-.44-.11-.45-.55-.01-.28-.09-.56-.11-.34-.14.01l-.36 3.56.65-41.5q.65.58.66-1.18 0-.45.45-.48c1.42-.08 2.5-.16 3.69.83q7.48 6.25 16.5 9.85c5.59 2.24 10.71 10.35 16.98 5.73Z"/><path fill="#bc7a32" d="M233.17 250.06q1.51 3.9 3.02 8.75 1.77 5.72 8.71 16.01c7.63 8.4 18.48 7.86 29.07 7.91q1.01.12 1.89 1.03a.8.79-67 0 1 .22.55l-.31 36.45q-.01.76-.76.67l-2.75-.34.55-1.17q.22-.46-.21-.73l-4.42-2.72q-.36-.22-.78-.22h-.4a1.94 1.94 0 0 1-.97-.26c-19.07-10.9-43-14.15-64.5-12.01-4.92.48-21.12 1.29-25.35 6.71-2.28 2.92-4.9 4.3-6.22 7.87l-27.73 2.73q.69-.55.79-1.18.07-.47.48-.71 15.83-9.24 33.7-13.15 2.18-.48 1.17-2.47c-2.21-4.36-7.2-5.12-11.02-7.05q-2.44-1.22-5.06-2.12-.44-.15-.63-.58-.62-1.34-2.14-1.81-8.89-2.7-16.52-7.99-.2-.14 0-.38.27-.32-.16-.32l-3.52-.02q4.08-4.89 7.41-8.53c.63-.69 1.72-1.16 2.54-1.09 5.06.39 19.91-.11 22.89-5.16q1.43-2.43 1.3-5.51l1.2-11.26 1.3-25.94.36-3.56q.03-.35.14-.01.08.28.09.56.01.44.45.55c2.49.63 4.06 2.67 5.83 3.72q12.74 7.56 20.49 10.39 10.26 3.74 16.22 7.14c1.99 1.13 4.42 2 6.55 3.15q.42.23.9.22 2.62-.06 6.18 1.88Z"/><path fill="#fde9d6" d="m174.66 251.96-1.2 11.26q-4.54-2.11-8.43-5.13c-4.42-3.43-26.15-1.57-35.34-1.19q-20.73.87-53.74-.68c-3.38-.15-5.41.85-4.88 4.59a.91.88-37.1 0 1-.08.52l-1.49 3.09a1.19 1.18 31.4 0 0 .36 1.47q9.85 7.37 21.22 9.56c4.71.9 11.18.5 16.75 1.33 10.88 1.63 20.39 8.48 27.56 16.54a.79.78 39.6 0 1 .09.92q-.87 1.44-2.94 1.46c-6.59.04-15.4-.19-21.66 1.93q-.64.21-.14.67c8.14 7.31 16.65 13.77 25.2 20.64 1.12.9 1.78.71 3.07.39l.02 1.59q.01.63.65.58l2.55-.21 27.73-2.73c12.21-.61 25.17-1.49 36.4-1.61q25.23-.25 50.37 2.02c3.7.33 7.98 1.25 12.03 1.66q-2.87.17-5.35 1.56-.43.24-.92.19c-2.87-.3-5.02.35-7.89-.48-4.83-1.39-8.96-.41-13.8-.96q-3.32-.39-6.63.19c-4.05.7-6.19 3.52-10.94.47q-.43-.28-.87-.01-1.96 1.18-3.82 2.32c-2.12 1.3-2.52 3.49-.1 4.66 3.22 1.54 7.22 1.26 10.73 2.59 2.85 1.07 12.54 3.46 14.32 6.69q.69 1.25 1.18 2.82c-8.13-5.27-21.2-3.8-29.75-3.63q-.59.01-.59.59l.04 49.85q0 1.02 1.02 1.03l7.13.08-5.75.17a.63.62-3 0 0-.62.68q.11 1.32-1.49 1.17a.27.27 0 0 0-.22.46l.23.23q.05.05-.01.08c-4.12 2.09-3.88 5.13-3.8 9.15q.01.41.34.65l.46.34q.67.49-.17.47-2.96-.1-5.02 1.54L17 403.57a.5.5 0 0 1-.5-.5l-.03-152.43c51.01-3.96 102.54-3.01 153.53.36q1.23.08 4.66.96Z"/><path fill="#fbdcbd" d="M173.46 263.22q.13 3.08-1.3 5.51c-2.98 5.05-17.83 5.55-22.89 5.16-.82-.07-1.91.4-2.54 1.09q-3.33 3.64-7.41 8.53l-.31 35.82c-1.29.32-1.95.51-3.07-.39-8.55-6.87-17.06-13.33-25.2-20.64q-.5-.46.14-.67c6.26-2.12 15.07-1.89 21.66-1.93q2.07-.02 2.94-1.46a.79.78 39.6 0 0-.09-.92c-7.17-8.06-16.68-14.91-27.56-16.54-5.57-.83-12.04-.43-16.75-1.33q-11.37-2.19-21.22-9.56a1.19 1.18 31.4 0 1-.36-1.47l1.49-3.09a.91.88-37.1 0 0 .08-.52c-.53-3.74 1.5-4.74 4.88-4.59q33.01 1.55 53.74.68c9.19-.38 30.92-2.24 35.34 1.19q3.89 3.02 8.43 5.13Z"/><path fill="#eaa44c" d="M273.97 282.73c-10.59-.05-21.44.49-29.07-7.91q1.12-.57.63-1.07-1.41-1.46-2.33-2.97a.39.39 0 0 1 .58-.51c5.14 4.07 13.17 2.95 19.37 3.15 4.56.15 8.76 5.6 10.82 9.31Z"/><path fill="#a06326" d="m139.32 283.51 3.52.02q.43 0 .16.32-.2.24 0 .38 7.63 5.29 16.52 7.99 1.52.47 2.14 1.81.19.43.63.58 2.62.9 5.06 2.12c3.82 1.93 8.81 2.69 11.02 7.05q1.01 1.99-1.17 2.47-17.87 3.91-33.7 13.15-.41.24-.48.71-.1.63-.79 1.18l-2.55.21q-.64.05-.65-.58l-.02-1.59.31-35.82Z"/><path fill="#90593a" d="m272.26 321.09-3.5-.46c-4.05-.41-8.33-1.33-12.03-1.66q-25.14-2.27-50.37-2.02c-11.23.12-24.19 1-36.4 1.61 1.32-3.57 3.94-4.95 6.22-7.87 4.23-5.42 20.43-6.23 25.35-6.71 21.5-2.14 45.43 1.11 64.5 12.01a1.94 1.94 0 0 0 .97.26h.4q.42 0 .78.22l4.42 2.72q.43.27.21.73l-.55 1.17Z"/><path fill="#e48b31" d="M347.612 370.143a19.25 19.25 0 0 1-19.115 19.384l-3.48.024a19.25 19.25 0 0 1-19.384-19.115l-.105-14.96a19.25 19.25 0 0 1 19.115-19.383l3.48-.025a19.25 19.25 0 0 1 19.384 19.116l.105 14.96Zm-9.707-16.003a10.8 10.8 0 0 0-10.781-10.819l-1.38-.002a10.8 10.8 0 0 0-10.819 10.781l-.03 17.26a10.8 10.8 0 0 0 10.781 10.819l1.38.002a10.8 10.8 0 0 0 10.819-10.781l.03-17.26ZM244.67 340.67q4.18 3.37 5.04 9.57c2.53 18.18-11.1 21.07-25.38 20.41q-.57-.03-.57.54-.03 8.19-.02 16.27 0 .6-.27.84-.34.31-.95.29l-7.13-.08q-1.02-.01-1.02-1.03l-.04-49.85q0-.58.59-.59c8.55-.17 21.62-1.64 29.75 3.63Zm-20.92 4.68.02 16.96a1.17 1.17 0 0 0 1.18 1.17l6.78-.01a9.03 8.12-.1 0 0 9.01-8.13v-3.06a9.03 8.12-.1 0 0-9.05-8.11l-6.78.01a1.17 1.17 0 0 0-1.16 1.17ZM270.07 369.14l-.37 18.76q-.01.6-.6.6h-7.85q-.75 0-.75-.75v-50.24q0-.49.49-.49c12.53-.09 35.86-3.8 35.27 16.24q-.28 9.38-8.3 13.25-.43.21-.24.65c2.19 5.15 6.13 15.63 10.65 15.6a.87.87 0 0 1 .87.93l-.31 4.63a.85.83-5.9 0 1-.62.75c-7.04 2-10.06-1.47-13.22-7.47q-3.23-6.16-6.39-12.36-.27-.53-.86-.54l-7.23-.08q-.53-.01-.54.52Zm-.05-23.85-.06 15.26a1.11 1.11 0 0 0 1.11 1.11l7.68.03a8.19 7.68.2 0 0 8.22-7.65v-2.12a8.19 7.68.2 0 0-8.16-7.71l-7.68-.03a1.11 1.11 0 0 0-1.11 1.11Z"/><rect width="22.98" height="38.86" x="-11.49" y="-19.43" fill="#fdf1e4" rx="10.8" transform="rotate(.1 -207677.187 187194.752)"/><path fill="#fde9d6" d="M223.75 345.35a1.17 1.17 0 0 1 1.16-1.17l6.78-.01a9.03 8.12-.1 0 1 9.05 8.11v3.06a9.03 8.12-.1 0 1-9.01 8.13l-6.78.01a1.17 1.17 0 0 1-1.18-1.17l-.02-16.96ZM270.02 345.29a1.11 1.11 0 0 1 1.11-1.11l7.68.03a8.19 7.68.2 0 1 8.16 7.71v2.12a8.19 7.68.2 0 1-8.22 7.65l-7.68-.03a1.11 1.11 0 0 1-1.11-1.11l.06-15.26Z"/></svg>